<svg xmlns="http://www.w3.org/2000/svg" width="56.166" height="32.163" viewBox="0 0 56.166 32.163">
  <g id="TTEC_HN_Logo" transform="translate(0 -1.22)">
    <path id="Path_8566" data-name="Path 8566" d="M13.967,9.848h0a10.129,10.129,0,0,0-6.62,2.45V1.22H.545A.545.545,0,0,0,0,1.759V4.232a.545.545,0,0,0,.545.539H3.268a.545.545,0,0,1,.539.545V32.839a.545.545,0,0,0,.545.539H6.824a.545.545,0,0,0,.539-.539h0V20.119a6.612,6.612,0,1,1,13.223-.1V32.832a.545.545,0,0,0,.545.545H23.6a.545.545,0,0,0,.545-.545V20.019A10.171,10.171,0,0,0,13.967,9.848Z" transform="translate(0)" fill="#fa6834"/>
    <path id="Path_8567" data-name="Path 8567" d="M259.3,114.333h0a10.129,10.129,0,0,0-6.62,2.45V113.22h-6.808a.545.545,0,0,0-.539.545v2.472a.545.545,0,0,0,.539.539h2.723a.545.545,0,0,1,.539.545v15.325a.545.545,0,0,0,.539.539h2.472a.545.545,0,0,0,.545-.539h0V124.6a6.621,6.621,0,1,1,13.241-.1v8.13a.545.545,0,0,0,.545.545h2.456a.545.545,0,0,0,.545-.545V124.5A10.171,10.171,0,0,0,259.3,114.333Z" transform="translate(-218.609 -99.801)" fill="#fa6834"/>
    <path id="Path_8568" data-name="Path 8568" d="M362.138,55.483c0-.376-.009-.752,0-1.126.013-.405.19-.6.563-.618a21.261,21.261,0,0,1,8.862,1.2,11.44,11.44,0,0,1,7.253,8.579,1.136,1.136,0,0,1-.025.7.706.706,0,0,1-.537.274c-.871.024-1.743,0-2.614,0-.376,0-.517-.232-.613-.551a8.555,8.555,0,0,0-2.972-4.456,10.4,10.4,0,0,0-4.279-1.806,21.853,21.853,0,0,0-4.947-.436c-.5.008-.675-.168-.69-.663Z" transform="translate(-322.692 -46.771)" fill="#fa6834"/>
  </g>
</svg>
