<?xml version="1.0" encoding="utf-8"?>
<!-- Generator: Adobe Illustrator 25.1.0, SVG Export Plug-In . SVG Version: 6.00 Build 0)  -->
<svg version="1.1" id="Layer_1" xmlns="http://www.w3.org/2000/svg" xmlns:xlink="http://www.w3.org/1999/xlink" x="0px" y="0px"
	 viewBox="0 0 24 24" style="enable-background:new 0 0 24 24;" xml:space="preserve">
<style type="text/css">
	.st0{display:none;fill:#FA6834;}
	.st1{fill:#FA6834;}
</style>
<path class="st0" d="M3.4,21.5C3.4,21.5,3.4,21.5,3.4,21.5c-0.5,0-1.1-0.2-1.4-0.6c-0.4-0.4-0.6-0.9-0.6-1.4v-4.6c0-1,0.7-1.8,1.7-2
	L8.9,12l-5.8-0.9c-1-0.1-1.7-1-1.7-2V4.5c0-0.3,0.1-0.6,0.2-0.8c0.5-1,1.7-1.5,2.7-1l17.7,8.1c0.3,0.1,0.5,0.4,0.6,0.6
	c0.1,0.3,0.2,0.7,0,1c-0.1,0.3-0.4,0.6-0.7,0.7L4.2,21.3C4,21.4,3.7,21.5,3.4,21.5z M3.4,4.5l0,4.6L15.2,11c0.6,0.2,0.8,0.9,0.6,1.4
	l-0.2,0.4l-0.7,0.3L3.4,14.9l0,4.6l0.4,0.9l-0.4-0.9L19.6,12L3.4,4.5z M21,12.6C21,12.7,21,12.7,21,12.6L21,12.6z M21,11.3
	C21,11.4,21,11.4,21,11.3L21,11.3z"/>
<path class="st1" d="M22.5,11.5c-0.1-0.3-0.4-0.5-0.6-0.6L4.2,2.7c-1-0.5-2.2,0-2.7,1C1.4,3.9,1.4,4.2,1.4,4.5v4.1
	c0,1,0.7,1.8,1.7,2l9,1.4l-9,1.4c-1,0.1-1.7,1-1.7,2v4.1c0,1.1,0.9,2,2,2c0.3,0,0.6-0.1,0.8-0.2l17.6-8.1c0.3-0.1,0.6-0.4,0.7-0.7
	C22.7,12.1,22.7,11.8,22.5,11.5z"/>
</svg>
