<svg xmlns="http://www.w3.org/2000/svg" width="18" height="18" viewBox="0 0 18 18">
  <g id="message-square_1_" data-name="message-square (1)" transform="translate(-3 -3)" fill="none" stroke-linecap="round" stroke-linejoin="round">
    <path d="M21,15a2,2,0,0,1-2,2H7L3,21V5A2,2,0,0,1,5,3H19a2,2,0,0,1,2,2Z" stroke="none"/>
    <path d="M 4.999999046325684 16.17157936096191 L 5.585789203643799 15.58578872680664 C 5.960858821868896 15.21070861816406 6.469569206237793 14.99999904632568 6.999999046325684 14.99999904632568 L 19 14.99999904632568 L 19 4.999999046325684 L 4.999999046325684 4.999999046325684 L 4.999999046325684 16.17157936096191 M 2.999999046325684 21 L 2.999999046325684 4.999999046325684 C 2.999999046325684 3.895429134368896 3.895429134368896 2.999999046325684 4.999999046325684 2.999999046325684 L 19 2.999999046325684 C 20.10456848144531 2.999999046325684 21 3.895429134368896 21 4.999999046325684 L 21 14.99999904632568 C 21 16.10456848144531 20.10456848144531 17 19 17 L 6.999999046325684 17 L 2.999999046325684 21 Z" stroke="none" fill="#fa6834"/>
  </g>
</svg>
