<?xml version="1.0" encoding="utf-8"?>
<!-- Generator: Adobe Illustrator 25.2.0, SVG Export Plug-In . SVG Version: 6.00 Build 0)  -->
<svg version="1.1" id="Layer_1" xmlns="http://www.w3.org/2000/svg" xmlns:xlink="http://www.w3.org/1999/xlink" x="0px" y="0px"
	 viewBox="0 0 250 250" style="enable-background:new 0 0 250 250;" xml:space="preserve">
<style type="text/css">
	.st0{opacity:0.6;fill:#FFFFFF;}
	.st1{fill:#FFFFFF;}
</style>
<path class="st0" d="M0,0v250h250V0H0z M246.5,150c-1.6,8-4.1,15.8-7.2,23.3c-3.1,7.3-7,14.4-11.4,21.1c-4.4,6.6-9.5,12.7-15.1,18.4
	c-5.6,5.6-11.8,10.7-18.4,15.1c-6.6,4.5-13.7,8.3-21.1,11.4c-7.5,3.2-15.3,5.6-23.3,7.2c-8.2,1.7-16.6,2.5-25,2.5
	c-8.4,0-16.8-0.8-25-2.5c-8-1.6-15.8-4.1-23.3-7.2c-7.3-3.1-14.4-7-21.1-11.4c-6.6-4.4-12.7-9.5-18.4-15.1
	c-5.6-5.6-10.7-11.8-15.1-18.4c-4.5-6.6-8.3-13.7-11.4-21.1C7.6,165.8,5.1,158,3.5,150C1.8,141.8,1,133.4,1,125
	c0-8.4,0.8-16.8,2.5-25c1.6-8,4.1-15.8,7.2-23.3c3.1-7.3,7-14.4,11.4-21.1c4.4-6.6,9.5-12.7,15.1-18.4c5.6-5.6,11.8-10.7,18.4-15.1
	c6.6-4.5,13.7-8.3,21.1-11.4C84.2,7.6,92,5.1,100,3.5c8.2-1.7,16.6-2.5,25-2.5c8.4,0,16.8,0.8,25,2.5c8,1.6,15.8,4.1,23.3,7.2
	c7.3,3.1,14.4,7,21.1,11.4c6.6,4.4,12.7,9.5,18.4,15.1c5.6,5.6,10.7,11.8,15.1,18.4c4.5,6.6,8.3,13.7,11.4,21.1
	c3.2,7.5,5.6,15.3,7.2,23.3c1.7,8.2,2.5,16.6,2.5,25C249,133.4,248.2,141.8,246.5,150z"/>
<path class="st1" d="M125,2c-8.3,0-16.7,0.8-24.8,2.5c-7.9,1.6-15.7,4-23.1,7.2c-7.3,3.1-14.3,6.9-20.9,11.3
	c-6.5,4.4-12.6,9.5-18.2,15S27.4,49.7,23,56.2c-4.4,6.6-8.3,13.6-11.3,20.9c-3.1,7.4-5.6,15.2-7.2,23.1C2.8,108.3,2,116.7,2,125
	c0,8.3,0.8,16.7,2.5,24.8c1.6,7.9,4,15.7,7.2,23.1c3.1,7.3,6.9,14.3,11.3,20.9c4.4,6.5,9.5,12.6,15,18.2s11.7,10.6,18.2,15
	c6.6,4.4,13.6,8.3,20.9,11.3c7.4,3.1,15.2,5.6,23.1,7.2c8.1,1.7,16.4,2.5,24.8,2.5c8.3,0,16.7-0.8,24.8-2.5c7.9-1.6,15.7-4,23.1-7.2
	c7.3-3.1,14.3-6.9,20.9-11.3c6.5-4.4,12.6-9.5,18.2-15s10.6-11.7,15-18.2c4.4-6.6,8.3-13.6,11.3-20.9c3.1-7.4,5.6-15.2,7.2-23.1
	c1.7-8.1,2.5-16.4,2.5-24.8c0-8.3-0.8-16.7-2.5-24.8c-1.6-7.9-4-15.7-7.2-23.1c-3.1-7.3-6.9-14.3-11.3-20.9
	c-4.4-6.5-9.5-12.6-15-18.2s-11.7-10.6-18.2-15c-6.6-4.4-13.6-8.3-20.9-11.3c-7.4-3.1-15.2-5.6-23.1-7.2C141.7,2.8,133.3,2,125,2
	 M125,0c69,0,125,56,125,125s-56,125-125,125S0,194,0,125S56,0,125,0z"/>
</svg>
