<?xml version="1.0" encoding="utf-8"?>
<!-- Generator: Adobe Illustrator 25.1.0, SVG Export Plug-In . SVG Version: 6.00 Build 0)  -->
<svg version="1.1" id="TTEC_HN_Logo" xmlns="http://www.w3.org/2000/svg" xmlns:xlink="http://www.w3.org/1999/xlink" x="0px"
	 y="0px" viewBox="0 0 101.2 33.5" style="enable-background:new 0 0 101.2 33.5;" xml:space="preserve">
<style type="text/css">
	.st0{fill:#273A43;}
	.st1{fill:#FA6834;}
</style>
<path class="st0" d="M31.7,21.2c-0.2-1.8-1-3.5-2.3-4.7c-2.5-2.3-6.3-2.4-8.8-0.2c-1.9,1.6-2.9,4.1-2.5,6.6c0.2,2,1.4,3.9,3.1,5
	c1.5,1,3.4,1.4,5.2,1c2.2-0.3,4.1-1.8,4.9-3.9c0.1-0.3,0-0.5-0.3-0.5c-0.5,0-1,0-1.5,0c-0.2,0-0.5,0.1-0.6,0.3
	c-0.7,1.3-2.1,2.2-3.6,2.2c-2.5,0.2-4.8-1.7-5-4.2c0-0.3,0-0.3,0.3-0.3h5.3v0h5.4c0.1,0,0.1,0,0.2,0c0.3-0.1,0.4-0.3,0.4-0.6
	C31.7,21.7,31.7,21.5,31.7,21.2z M29,20.5h-4.2l-4.1,0c-0.3,0-0.3,0-0.2-0.3c0.5-1.6,1.8-2.9,3.5-3.3c1.6-0.4,3.3,0.2,4.3,1.5
	c0.5,0.5,0.8,1.2,1,1.8C29.3,20.5,29.2,20.5,29,20.5z M46.2,25c-0.8,1.9-2.5,3.4-4.5,3.8c-3.7,0.9-7.4-1.4-8.3-5.1
	c0-0.1,0-0.2-0.1-0.3c-0.7-2.9,0.5-6,3-7.7c3-2.1,7.2-1.3,9.3,1.8c0.2,0.3,0.4,0.7,0.6,1.1c0.2,0.4,0,0.6-0.4,0.6
	c-0.2,0-0.5,0-0.7,0c-0.2,0-0.5,0-0.7,0c-0.2,0-0.5-0.1-0.6-0.3c-1.2-2.1-3.8-2.8-5.9-1.6c-0.4,0.2-0.7,0.5-1,0.8
	c-2,2.1-1.9,5.4,0.1,7.5c1.7,1.7,4.4,1.8,6.1,0.1c0.3-0.3,0.5-0.6,0.7-0.9c0.1-0.3,0.4-0.4,0.7-0.4c0.5,0,0.9,0,1.4,0
	C46.2,24.5,46.4,24.7,46.2,25z M3.7,24.5c0-0.3-0.1-0.7,0-1c0-2.2,0-4.4,0-6.6V9.8c0-0.4,0.1-0.5,0.5-0.5h1.4C5.9,9.3,6,9.4,6,9.7
	c0,0.8,0,1.6,0,2.3c0,0.2,0.1,0.3,0.3,0.3c0.5,0,1.1,0,1.6,0c0.3,0,0.4,0.1,0.4,0.4c0,0.5,0,1.1,0,1.6c0,0.3-0.1,0.4-0.4,0.4
	c-0.5,0-1.1,0-1.6,0c-0.2,0-0.2,0-0.2,0.2c0,3,0,6,0,9c0,1.4,1,2.5,2.3,2.7c0.4,0.1,0.8,0.1,1.3,0.2c0.3,0,0.4,0.1,0.4,0.4v1.4
	c0,0.2-0.1,0.3-0.3,0.3c0,0,0,0,0,0c-1.4,0.1-2.7-0.2-3.9-1C4.6,27.3,3.8,26,3.7,24.5z M17.3,27.3v1.4c0,0.3-0.1,0.4-0.4,0.4
	c-1.3,0.1-2.6-0.2-3.7-0.9c-1.2-0.8-1.9-2.1-2.1-3.5c0-0.3-0.1-0.7-0.1-1c0-1.9,0-3.7,0-5.6v-6.2c0-0.4,0.1-0.5,0.5-0.5h1.4
	c0.3,0,0.4,0.1,0.4,0.5c0,0.9,0,1.8,0,2.7c0,0.2,0.1,0.2,0.2,0.2c0.5,0,1.1,0,1.6,0c0.3,0,0.4,0.1,0.4,0.4v1.4
	c0,0.3-0.1,0.4-0.4,0.4h-1.7c-0.1,0-0.2,0-0.2,0.2c0,2.3,0,4.6,0,6.9c0,1.3,1,2.4,2.2,2.6c0.4,0.1,0.8,0.1,1.3,0.2
	C17.2,26.9,17.3,27,17.3,27.3z M9.9,32.5L9.9,32.5l0,0.7c0,0.2-0.1,0.4-0.3,0.4c-1.8,0.1-3.6-0.1-5.3-0.7C2.1,31.9,0.5,30,0,27.7
	c0-0.1,0-0.3,0-0.4c0.1-0.1,0.2-0.2,0.3-0.2c0.5,0,1,0,1.6,0c0.2,0,0.3,0.1,0.4,0.3c0.3,1,0.9,2,1.8,2.6c0.8,0.5,1.6,0.9,2.5,1.1
	c1,0.2,2,0.3,2.9,0.3c0.3,0,0.4,0.1,0.4,0.4V32.5z M0,14.4v-1.7c0-0.2,0.1-0.3,0.3-0.3H2c0.2,0,0.3,0.1,0.3,0.3c0,0.3,0,0.6,0,0.9
	v0.8c0,0.2-0.1,0.4-0.4,0.4H0.4C0.1,14.7,0,14.6,0,14.4z M48.7,14.7V16h-0.2v-0.8h0c-0.1,0.2-0.1,0.4-0.2,0.6c0,0.1,0,0.2-0.2,0.2
	c-0.2,0-0.1-0.1-0.2-0.2c0-0.2-0.1-0.4-0.2-0.6v0.8l-0.2,0v-1.2c0.3-0.1,0.4-0.1,0.5,0.2c0,0.2,0.1,0.3,0.1,0.6
	c0.1-0.2,0.1-0.4,0.2-0.5C48.3,14.7,48.3,14.7,48.7,14.7z M47.1,14.7c0.1,0,0.2,0.1,0.1,0.2l-0.4,0v1h-0.2v-1l-0.4,0
	c-0.1-0.1-0.1-0.2,0.1-0.2H47.1z"/>
<path class="st1" d="M77.5,20.7v8.1c0,0.2-0.2,0.3-0.3,0.3h-1.6c0,0,0,0,0,0c-0.2,0-0.3-0.1-0.3-0.3v-8.2c-0.1-2.1-1.9-3.8-4-3.9
	c-2.3-0.1-4.3,1.7-4.4,4l0,8.1c0,0.2-0.2,0.3-0.3,0.3h-1.6c0,0,0,0,0,0c-0.2,0-0.3-0.1-0.3-0.3V9.3c0-0.2,0.2-0.3,0.3-0.3h1.6
	c0,0,0,0,0,0c0.2,0,0.3,0.1,0.3,0.3v6.8c1.2-1,2.7-1.5,4.2-1.5c0,0,0,0,0,0C74.5,14.5,77.4,17.2,77.5,20.7z M86.7,14.5
	C86.7,14.5,86.7,14.5,86.7,14.5c-1.6,0-3.1,0.6-4.2,1.6v-1.5c0-0.2-0.1-0.3-0.3-0.3c0,0,0,0,0,0h-1.6c-0.2,0-0.3,0.1-0.3,0.3
	c0,0,0,0,0,0v14.2c0,0.2,0.1,0.3,0.3,0.3c0,0,0,0,0,0h1.6c0.2,0,0.3-0.1,0.3-0.3c0,0,0,0,0,0v-7.7c0-2.3,1.8-4.3,4.1-4.3
	c2.3,0,4.3,1.8,4.3,4.1c0,0,0,0,0,0.1v7.8c0,0.2,0.1,0.3,0.3,0.3c0,0,0,0,0,0h1.6c0.2,0,0.3-0.1,0.3-0.3c0,0,0,0,0,0V21
	C93.2,17.4,90.3,14.6,86.7,14.5z M100.7,10.3L79.9,0.3c-0.2-0.1-0.5-0.1-0.8,0L69,4.8V0.9C69,0.4,68.6,0,68.1,0h-5.8
	c-0.5,0-0.9,0.4-0.9,0.9v7.7l-3.7,2.1c-0.3,0.2-0.5,0.5-0.5,0.8c0,0.5,0.4,0.9,0.9,0.9c0.2,0,0.3,0,0.4-0.1l4.2-2.3
	c0.3-0.2,0.5-0.5,0.5-0.8V1.8h4v4.4c0,0.1,0,0.3,0.1,0.4c0.2,0.5,0.7,0.7,1.2,0.5l11-4.9L99.9,12c0.4,0.2,1,0,1.2-0.4
	C101.3,11.1,101.1,10.6,100.7,10.3z M94.9,12.1l-15.1-7C79.6,5,79.3,5,79,5.1l-7,3.2c0,0,0,0,0,0c-0.5,0.2-0.6,0.8-0.4,1.2
	c0.2,0.5,0.8,0.6,1.2,0.4l6.6-3l14.7,6.8c0.1,0.1,0.3,0.1,0.4,0.1l0,0c0.4,0,0.7-0.2,0.8-0.5C95.5,12.9,95.3,12.3,94.9,12.1z"/>
</svg>
