<?xml version="1.0" encoding="utf-8"?>
<!-- Generator: Adobe Illustrator 25.1.0, SVG Export Plug-In . SVG Version: 6.00 Build 0)  -->
<svg version="1.1" id="Layer_1" xmlns="http://www.w3.org/2000/svg" xmlns:xlink="http://www.w3.org/1999/xlink" x="0px" y="0px"
	 viewBox="0 0 26 26" style="enable-background:new 0 0 26 26;" xml:space="preserve">
<style type="text/css">
	.st0{display:none;fill:#FA6834;}
	.st1{fill:#FA6834;}
</style>
<path id="Icon_Users" transform="translate(1 1)" class="st0" d="M16,22c-0.6,0-1-0.4-1-1v-2c0-1.7-1.3-3-3-3H5c-1.7,0-3,1.3-3,3v2
	c0,0.6-0.4,1-1,1s-1-0.4-1-1v-2c0-2.8,2.2-5,5-5h7c2.8,0,5,2.2,5,5v2C17,21.6,16.6,22,16,22z M13.5,7c0-2.8-2.2-5-5-5s-5,2.2-5,5
	s2.2,5,5,5S13.5,9.8,13.5,7z M11.5,7c0,1.7-1.3,3-3,3s-3-1.3-3-3s1.3-3,3-3S11.5,5.3,11.5,7z M19.7,13.7l4-4c0.4-0.4,0.4-1,0-1.4
	s-1-0.4-1.4,0L19,11.6l-1.3-1.3c-0.4-0.4-1-0.4-1.4,0s-0.4,1,0,1.4l2,2c0.2,0.2,0.5,0.3,0.7,0.3S19.5,13.9,19.7,13.7z"/>
<path class="st1" d="M18,20v2c0,0.6-0.4,1-1,1H2c-0.6,0-1-0.4-1-1v-2c0-2.8,2.2-5,5-5h7C15.8,15,18,17.2,18,20z M9.5,13
	c2.8,0,5-2.2,5-5s-2.2-5-5-5s-5,2.2-5,5S6.7,13,9.5,13z M24.7,9.3c-0.4-0.4-1-0.4-1.4,0L20,12.6l-1.3-1.3c-0.4-0.4-1-0.4-1.4,0
	s-0.4,1,0,1.4l2,2c0.2,0.2,0.5,0.3,0.7,0.3s0.5-0.1,0.7-0.3l4-4C25.1,10.3,25.1,9.7,24.7,9.3z"/>
</svg>
