<?xml version="1.0" encoding="utf-8"?>
<!-- Generator: Adobe Illustrator 25.1.0, SVG Export Plug-In . SVG Version: 6.00 Build 0)  -->
<svg version="1.1" id="TL_Badge" xmlns="http://www.w3.org/2000/svg" xmlns:xlink="http://www.w3.org/1999/xlink" x="0px" y="0px"
	 viewBox="0 0 56 44" style="enable-background:new 0 0 56 44;" xml:space="preserve">
<style type="text/css">
	.st0{fill:#CE4615;}
	.st1{fill:url(#Ellipse_212_1_);}
	.st2{fill:url(#Ellipse_214_1_);}
	.st3{fill:#F15B24;}
	.st4{fill:#F2F5F9;}
</style>
<path id="Path_8572" class="st0" d="M0,24h56l-5.3-5.5c-1.4-1.2-3.2-1.8-5-1.7H10.3c-1.8-0.1-3.6,0.5-5,1.7L0,24z"/>
<linearGradient id="Ellipse_212_1_" gradientUnits="userSpaceOnUse" x1="17.5059" y1="32.4723" x2="16.7149" y2="33.0323" gradientTransform="matrix(44 0 0 -44 -725 1463)">
	<stop  offset="0" style="stop-color:#F8A63B"/>
	<stop  offset="1" style="stop-color:#EE5225"/>
</linearGradient>
<circle id="Ellipse_212" class="st1" cx="28" cy="22" r="22"/>
<linearGradient id="Ellipse_214_1_" gradientUnits="userSpaceOnUse" x1="17.275" y1="32.925" x2="18.275" y2="32.925" gradientTransform="matrix(2.449294e-15 -40 -40 -2.449294e-15 1344.999 733)">
	<stop  offset="0" style="stop-color:#3F5765"/>
	<stop  offset="1" style="stop-color:#2B3A42"/>
</linearGradient>
<circle id="Ellipse_214" class="st2" cx="28" cy="22" r="20"/>
<path id="Path_8573" class="st3" d="M0,24.1h56l-5.3,9.4c-1,1.8-2.9,2.9-5,2.8H10.3c-2.1,0-4-1.1-5-2.8L0,24.1z"/>
<path class="st4" d="M16.1,14.4h-1.9v-1.1h5.4v1.1h-1.9v5.8h-1.5V14.4z M20.9,13.3h4.5v1.1h-3v1.7h2.3v1.1h-2.3V19h3.1v1.1h-4.6
	V13.3z M28.8,13.3h1.6l2.4,6.9h-1.6l-0.5-1.6h-2.4l-0.5,1.6h-1.4L28.8,13.3z M28.6,17.5h1.8L29.5,15h0L28.6,17.5z M34,13.3h2.1
	l1.5,4.8h0l1.5-4.8h2.1v6.9h-1.5v-5.1h0l-1.6,5.1H37l-1.6-5.1h0v5.1H34V13.3z M9.4,26.2h1.5V32h2.8v1.1H9.4V26.2z M15.1,26.2h4.5
	v1.1h-3V29h2.3v1.1h-2.3V32h3.1v1.1h-4.6V26.2z M23.1,26.2h1.6l2.4,6.9h-1.6L25,31.5h-2.4L22,33.1h-1.4L23.1,26.2z M22.9,30.4h1.8
	l-0.9-2.6h0L22.9,30.4z M28.3,26.2h2.4c2.1,0,3.4,1,3.4,3.3v0.2c0,2.3-1.2,3.4-3.4,3.4h-2.4V26.2z M30.7,32c1.2,0,1.8-0.6,1.8-2.2
	v-0.3c0-1.6-0.7-2.1-1.8-2.1h-0.8V32H30.7z M35.5,26.2H40v1.1h-3V29h2.3v1.1H37V32h3.1v1.1h-4.6V26.2z M41.6,26.2h2.6
	c1.7,0,2.5,0.7,2.5,2.1c0,1-0.5,1.5-1.2,1.8v0l1.6,3h-1.6l-1.4-2.7h-0.9v2.7h-1.5V26.2z M44,29.4c0.8,0,1.1-0.4,1.1-1.1
	c0-0.7-0.3-1-1.2-1h-0.8v2.1H44z"/>
</svg>
