<?xml version="1.0" encoding="utf-8"?>
<!-- Generator: Adobe Illustrator 25.1.0, SVG Export Plug-In . SVG Version: 6.00 Build 0)  -->
<svg version="1.1" id="Layer_1" xmlns="http://www.w3.org/2000/svg" xmlns:xlink="http://www.w3.org/1999/xlink" x="0px" y="0px"
	 viewBox="0 0 494 170" style="enable-background:new 0 0 494 170;" xml:space="preserve">
<style type="text/css">
	.st0{enable-background:new    ;}
	.st1{fill:#FA6834;}
</style>
<g class="st0">
	<path class="st1" d="M77.3,131.7H4V93.8L79.4,2.6h58.8v88.9h21.3v40.3h-21.3V167H77.3V131.7z M78.4,91.4V58.5h-0.9L52.6,90.7v0.7
		C52.6,91.4,78.4,91.4,78.4,91.4z"/>
	<path class="st1" d="M166.8,90v-8.5c0-61.9,40.5-81.5,80.6-81.5c43.6,0,79.2,21.8,79.2,79.9v8.5c0,60.7-40.5,81.5-80.6,81.5
		C202.4,169.8,166.8,149,166.8,90z M261.6,91.2V81c0-34.1-5.2-38.4-14.9-38.4c-9.7,0-14.9,4-14.9,36.3V89c0,31,4,38.2,14.7,38.2
		S261.6,122.2,261.6,91.2z"/>
	<path class="st1" d="M407.6,131.7h-73.2V93.8l75.4-91.2h58.8v88.9h21.3v40.3h-21.3V167h-60.9v-35.3H407.6z M408.8,91.4V58.5h-0.9
		L383,90.7v0.7C383,91.4,408.8,91.4,408.8,91.4z"/>
</g>
</svg>
