<?xml version="1.0" encoding="utf-8"?>
<!-- Generator: Adobe Illustrator 25.1.0, SVG Export Plug-In . SVG Version: 6.00 Build 0)  -->
<svg version="1.1" id="Layer_1" xmlns="http://www.w3.org/2000/svg" xmlns:xlink="http://www.w3.org/1999/xlink" x="0px" y="0px"
	 viewBox="0 0 812 517" style="enable-background:new 0 0 812 517;" xml:space="preserve">
<style type="text/css">
	.st0{enable-background:new    ;}
	.st1{fill:#8C8F98;}
	.st2{opacity:0.36;fill:#CCECF8;enable-background:new    ;}
	.st3{fill:none;stroke:#FAA83B;stroke-width:4;stroke-miterlimit:10;}
	.st4{fill:#F8A63B;}
	.st5{fill:none;stroke:#FCB83D;stroke-width:4;stroke-miterlimit:10;}
	.st6{fill:#FCB83D;}
	.st7{clip-path:url(#SVGID_2_);}
	.st8{fill:#F16E24;}
	.st9{fill:#3F5765;}
	.st10{fill:#2B3A42;}
	.st11{fill:#FCB73D;}
	.st12{fill:#F9A83B;}
	.st13{clip-path:url(#SVGID_4_);}
	.st14{fill:#EE5225;}
	.st15{fill:none;stroke:#FCB83D;stroke-width:3.9995;stroke-miterlimit:9.9987;}
	.st16{fill:#FFFFFF;}
	.st17{fill:#513114;}
	.st18{fill:none;stroke:#2B3A42;stroke-width:3;stroke-miterlimit:10;}
	.st19{fill:#9A9A9A;}
	.st20{fill:#FF5555;}
</style>
<g id="_403" transform="translate(-465 -323)">
	<g id="Group_2174" transform="translate(-2219.574 -108.863)">
		<g class="st0">
			<path class="st1" d="M2808.2,654.3h-123.6v-64l127.2-154h99.2v150h36v68h-36v59.6h-102.8V654.3z M2810.2,586.3v-55.6h-1.6
				l-42,54.4v1.2L2810.2,586.3L2810.2,586.3z"/>
			<path class="st1" d="M3280.5,702.3v-66.4c16.4,4,40.4,7.6,64.4,7.6c32,0,42-6.8,42-20c0-14-12.4-17.6-32-17.6h-33.6v-64.4h32
				c23.2,0,33.6-4.4,33.6-16.4c0-13.6-12.8-18-37.6-18c-22.4,0-46.8,3.6-61.6,6.4v-66.4c22-7.6,55.6-15.2,96.4-15.2
				c62.4,0,104.4,23.6,104.4,71.2c0,34-21.2,56-49.6,64v1.6c36.8,6.4,56.8,24.8,56.8,66c0,51.2-41.2,84-118.8,84
				C3331.7,718.7,3299.3,710.7,3280.5,702.3z"/>
		</g>
	</g>
	<g id="Group_2243" transform="translate(-40.355 -72.552)">
		<g id="Group_2228" transform="translate(940.652 761.158)">
			<path id="Path_8598" class="st2" d="M89.5,149.4c6,1.7,12.3,1.9,18.5,0.7c8.6-1.5,17.3-6.6,26.1-5.4c10.9,1.4,21.6,4.5,32.6,4.5
				c1.1,0.1,2.2-0.1,3.2-0.4c2.1-0.8,3.5-2.7,3.7-4.9s-0.9-4.4-2.9-5.5c-1.1-0.5-2.2-0.7-3.4-0.7c-10.4-0.7-21.4,1.4-31.9,1.9
				c-5.1,0.2-10.2,1.1-15-1.2c-4.1-2-8.7-2.9-13.3-2.9c-6.1,0.1-12.2,0.4-18.3,1.1c-1.8,0.2-3.5,0.6-5.2,1.4c-2.2,1-2.8,0.9-5.4,1.1
				c-14.2,1.1-29.3-0.7-43.4-2.7c-1.9-0.3-4-0.6-5.8,0.2c-2.2,1.1-3.6,3.4-3.5,5.9c0.2,2.5,1.8,4.6,4.2,5.3c1.6,0.3,3.2,0.2,4.8-0.2
				c7.4-1.3,15-2.1,22.5-2.3c6.5-0.2,13.1-2,19.6-0.9c3.9,0.7,7.4,3,11.1,4.4C88.4,149,88.9,149.2,89.5,149.4z"/>
			<line id="Line_125" class="st3" x1="107.1" y1="102.8" x2="107.1" y2="138.6"/>
			<line id="Line_126" class="st3" x1="92.2" y1="102.8" x2="92.2" y2="138.6"/>
			<g id="Group_2088" transform="translate(88.489 170.61)">
				<g id="Group_2087">
					<g id="Group_2086">
						<g id="Group_2085">
							<g id="Group_2084">
								<path id="Path_8599" class="st4" d="M-5.7-30c1.6-1.1,3.6-1.5,5.6-1.2c0.8,0.2,1.7-0.2,1.9-1.1c0-0.1,0.1-0.3,0.1-0.4
									L5.6-34c0.3,1,1.8,1.9,2.2,2.9c0.7,1.6-1.1,2.5-2.4,3c-0.5,0.2-0.9,0.3-1.4,0.3s-1-0.1-1.5-0.3c-0.7-0.1-1.3-0.1-2,0
									c-2.3,0.4-4.6,1.5-6.7,0.2c-0.3-0.1-0.5-0.3-0.6-0.6c0-0.2,0-0.5,0.2-0.7C-6.4-29.5-6.1-29.8-5.7-30z"/>
							</g>
						</g>
					</g>
				</g>
			</g>
			<g id="Group_2093" transform="translate(109.769 170.6)">
				<g id="Group_2092">
					<g id="Group_2091">
						<g id="Group_2090">
							<g id="Group_2089">
								<path id="Path_8600" class="st4" d="M6.8-30c-1.7-1-3.6-1.4-5.5-1.2c-1,0.2-1.9-0.5-2.1-1.4L-4.5-34
									c-0.3,1.4-1.7,1.9-2.2,2.9c-0.7,1.6,1.1,2.5,2.4,3c0.5,0.2,1,0.3,1.5,0.3s1-0.1,1.5-0.3c0.7-0.1,1.3-0.1,2,0
									c2.2,0.4,4.5,1.4,6.7,0.1c0.2-0.1,0.4-0.3,0.5-0.6s0-0.5-0.1-0.8C7.5-29.5,7.2-29.8,6.8-30z"/>
							</g>
						</g>
					</g>
				</g>
			</g>
			<path id="Path_8601" class="st5" d="M36.9,64.1c0,0-20.9-22.2-32.9-32.9"/>
			<path id="Path_8602" class="st6" d="M6.3,25.9c0.8-1.1,1.5-2.4,2-3.6c0.4-0.9,0.6-1.8,0.6-2.7c0-1-0.5-1.9-1.3-2.4
				c-1.2-0.6-2.5-0.3-3.5,0.6c-0.9,0.9-1.5,2-2,3.2c-0.6-1.3-2-2.1-3.4-1.8s-2.6,1.1-3.3,2.4C-4.8,21.9-5,22.3-5,22.7
				c0.1,0.4,0.2,0.8,0.5,1.1c0.7,0.9,1.5,1.8,2.3,2.7c-1.8,0.2-4,0.7-4.6,2.4c-0.3,1.5,0.4,3,1.8,3.7c1.4,0.6,2.9,0.8,4.4,0.7h3.9
				C8.2,33.2,4.3,28.8,6.3,25.9z"/>
			<g id="Group_2095" transform="translate(38.596 24.359)">
				<path id="Path_8603" class="st4" d="M129,22.7c-0.2,3.1-0.7,6.1-1.4,9.1c-0.9,4.6-0.6,9-2.5,13.5c-3.8,8.7-11.6,14.7-18.9,20.8
					c-2.5,2.2-5.1,4.2-7.8,6c-10,6.1-24,7.2-35.4,7.2c-3.3,0-6.5-0.6-9.6-1.7c-3.9-1.2-8.3-0.1-12.3-0.3
					c-8.4-0.6-15.9-5.6-22.6-10.9C11.4,60.7,4.8,54.3-0.3,46.7C-3.6,41.6-6.3,36-6.7,30c-0.1-2.7,0-5.4,0.6-8
					c1.2-6.5,3.3-12.8,6-18.8C1.6-1.1,3.7-5.1,6.3-8.9c3.1-4.3,7.4-6.3,11.3-9.5c4.1-3.3,8.5-6.1,13.3-8.4
					c20.3-9.6,43.8-9.6,64.1-0.1c12.3,5.9,23.2,15.6,29.2,28.4c2.9,6.1,4.5,12.7,4.7,19.5C129,21.6,129,22.1,129,22.7z"/>
				<g>
					<g>
						<defs>
							<path id="SVGID_1_" d="M129,22.7c-0.2,3.1-0.7,6.1-1.4,9.1c-0.9,4.6-0.6,9-2.5,13.5c-3.8,8.7-11.6,14.7-18.9,20.8
								c-2.5,2.2-5.1,4.2-7.8,6c-10,6.1-24,7.2-35.4,7.2c-3.3,0-6.5-0.6-9.6-1.7c-3.9-1.2-8.3-0.1-12.3-0.3
								c-8.4-0.6-15.9-5.6-22.6-10.9C11.4,60.7,4.8,54.3-0.3,46.7C-3.6,41.6-6.3,36-6.7,30c-0.1-2.7,0-5.4,0.6-8
								c1.2-6.5,3.3-12.8,6-18.8C1.6-1.1,3.7-5.1,6.3-8.9c3.1-4.3,7.4-6.3,11.3-9.5c4.1-3.3,8.5-6.1,13.3-8.4
								c20.3-9.6,43.8-9.6,64.1-0.1c12.3,5.9,23.2,15.6,29.2,28.4c2.9,6.1,4.5,12.7,4.7,19.5C129,21.6,129,22.1,129,22.7z"/>
						</defs>
						<clipPath id="SVGID_2_">
							<use xlink:href="#SVGID_1_"  style="overflow:visible;"/>
						</clipPath>
						<g id="Group_2094" class="st7">
							<path id="Path_8604" class="st6" d="M114.2,12.3c0.2,5.8-0.7,11.5-2.7,16.9c-1.9,4.8-4.7,9.2-7.6,13.5s-5.8,8.7-9.6,12.2
								c-6.2,5.7-14.3,8.6-22.4,9.7s-16.4,0.5-24.6,0c-8.4-0.6-17.7-0.1-26-1.8c-5.9-1.2-13.2-6-17.8-9.9c-3.3-2.8-6.3-7.2-8.8-10.7
								c-6.2-8.6-9.5-18.9-9.6-29.5c0-31.3,29.5-56.7,66-56.7c13.9-0.1,27.5,3.8,39.3,11.2c8.4,5.3,14.7,14.1,19.1,23.2
								c2.3,4.9,3.7,10.2,4.3,15.6C114,8,114.2,10.2,114.2,12.3z"/>
						</g>
					</g>
				</g>
			</g>
			<path id="Path_8610" class="st8" d="M39.7-9.2C48.5-23,64.7-30.6,80.9-33s32.7-0.2,48.9,1.5s33,2.8,48.8-1.5
				c-5.8,20.4-8,45.3-13.2,65.8c-5.6-9.7-11.5-20.3-19.5-21.2c-26.1-3.1-46.6-9.3-72.7-6.8c-8.4,0.8-20,0.6-24,8
				c-2.2,4.1-5.3,9.5-6.7,13.9c-5.8,18.7-10.8,0.4-10.6-7.8C32.2,9.1,34.3-0.8,39.7-9.2z"/>
			<g id="Group_2096" transform="translate(84.094 123.161)">
				<path id="Path_8611" class="st9" d="M18.3-25c4.4-2.4,10.2-5.8,14.6-8.1c1.1-0.6,2.9-1.3,3.7,0c0.3,0.6,0.4,1.3,0.4,1.9
					c0.2,3,0.2,6.1-0.1,9.1c-0.3,2.4,0.4,5.1-0.6,7.4c-0.1,0.3-0.3,0.6-0.6,0.8c-0.4,0.2-0.8,0.2-1.2,0.2c-4.1-0.2-8.2-0.8-12.1-2
					c-1.7-0.5-4-1.1-4.4-2.9c-0.2-1.1-0.3-2.2-0.2-3.3C17.8-22.5,17.9-24.8,18.3-25z"/>
				<path id="Path_8612" class="st9" d="M-1.5-31.8c-1.4-0.6-3.3-1.3-4.4,0.2c-1.6,2.2-0.5,6.2-0.3,8.7C-6-19.8-6-13-1.5-12.7
					c1.9,0.1,3.8-1,5.5-1.6l6.5-2.3c0.5-0.2,1.1-0.4,1.5-0.7c1.2-1.1,0.9-4.3,0.4-5.7c-0.6-1.7-2.2-2.8-3.7-3.8
					C5.9-28.9,1.7-30.3-1.5-31.8z"/>
				<path id="Path_8613" class="st10" d="M27.2-32.1c1.8-1.1,4.1-2.2,6.3-1.8c0.3,0,0.6,0.2,0.9,0.4c0.4,0.4,0.4,1,0.1,1.5
					c-0.3,0.5-0.7,0.8-1.2,1.1c-2.3,1.4-4.7,2.6-7.2,3.6c-2.3,1.1-4.6,1.9-7.1,2.6c-0.5,0.1-1.4,0.3-1.4-0.5c0-0.7,1.1-1.1,1.6-1.4
					c1-0.6,1.9-1.3,2.9-1.9C23.9-29.8,25.5-31,27.2-32.1z"/>
				<path id="Path_8614" class="st10" d="M6.9-26.2c0.7,0.3,1.5,0.5,2.2,0.8c0.7,0.2,2.1,1.1,2.9,0.9c1.4-0.5-1.4-3.2-1.8-3.5
					c-1.4-1.1-2.9-2-4.6-2.5c-1.4-0.5-9.1-3-9.5-0.7c0,0.5,0.2,0.9,0.6,1.2c0.4,0.3,0.8,0.5,1.3,0.6c2.5,0.8,5,1.7,7.4,2.6L6.9-26.2
					z"/>
				<path id="Rectangle_2428" class="st10" d="M15.6-25.7L15.6-25.7c2.4,0,4.4,2,4.4,4.4l0,0c0,2.4-2,4.4-4.4,4.4l0,0
					c-2.4,0-4.4-2-4.4-4.4l0,0C11.2-23.7,13.2-25.7,15.6-25.7z"/>
			</g>
			<g id="Group_2099" transform="translate(30.506 64.584)">
				<path id="Path_8617" class="st11" d="M-2.5-33.5c-3.5,2.4-4.7,7.9-4.2,12.6c0.3,3.1,1.7,6.6,4.3,7c1.3,0.2,2.7-0.5,4-0.9
					s2.9-0.5,3.9,0.6l0.2,0.8C5.3-14.6,6-19.3,5.9-21c-0.2-2,0.7-6.4,0.3-8C5.2-32.2,0.2-35.3-2.5-33.5z"/>
				<path id="Path_8618" class="st12" d="M140.9-33.5c3.5,2.3,4.7,7.8,4.2,12.6c-0.3,3.1-1.7,6.6-4.3,7c-1.3,0.2-2.7-0.5-4-0.9
					s-2.9-0.5-3.9,0.6c-0.1,0.3-0.2,0.5-0.2,0.8c0.4-1.2-0.3-5.9-0.2-7.6c0.2-2.1-0.8-6.4-0.3-8.1C133.1-32.2,138.1-35.3,140.9-33.5
					z"/>
			</g>
			<g id="Group_2101" transform="translate(38.82)">
				<g>
					<g>
						<defs>
							<path id="SVGID_3_" d="M0.8-9.2C9.7-23,25.9-30.6,42.1-33s32.7-0.2,48.9,1.5s33,2.8,48.8-1.5c-5.8,20.4-8,45.3-13.2,65.8
								c-5.6-9.7-11.5-20.3-19.5-21.2C81,8.5,60.5,2.3,34.4,4.8c-8.4,0.8-20,0.6-24,8c-2.2,4.1-5.3,9.5-6.7,13.9
								C-2,45.3-7,27.1-6.8,18.9C-6.6,9.1-4.5-0.8,0.8-9.2z"/>
						</defs>
						<clipPath id="SVGID_4_">
							<use xlink:href="#SVGID_3_"  style="overflow:visible;"/>
						</clipPath>
						<g id="Group_2100" class="st13">
							<path id="Path_8619" class="st14" d="M105.9-4.2c1.3-5.2,4-9.9,6.9-14.4c3.9-6,8.6-12.3,8.1-19.4c13.3,1.1,26.6,1.4,39.9,1
								c-7.6,16.3-14,33-19.2,50.2c-2.1,7-4.1,14.2-7.6,20.7c-1.3,2.4-3.5,4.9-6.1,4.2c-1.1-0.4-2.1-1.1-2.8-2.1
								c-3.5-4.2-6.7-8.6-9.6-13.3c-1.2-2.1-2.7-4-4.5-5.7c-1-0.7-1.9-1.5-2.7-2.4c-0.9-1.2-0.6-2.3-1-3.6c-0.4-1.7-1.3-3.1-1.7-4.8
								C104.9,2.7,105-0.8,105.9-4.2z"/>
						</g>
					</g>
				</g>
			</g>
			<path id="Path_8741" class="st15" d="M157.5,69c0,0,13.7,12.5,12.4,28.6c0,0-12.7,6.2-32.9,5"/>
			<path id="Path_8742" class="st6" d="M134.7,107.3c-0.4,1.3-0.9,2.6-1.6,3.8c-0.4,0.9-1,1.6-1.7,2.2c-0.8,0.6-1.8,0.8-2.7,0.5
				c-1.2-0.6-1.8-1.8-1.7-3.1c0.1-1.2,0.6-2.4,1.2-3.5c-1.4,0.4-2.9-0.2-3.6-1.5c-0.7-1.3-0.8-2.7-0.2-4.1c0.1-0.4,0.3-0.7,0.6-1
				c0.4-0.2,0.8-0.3,1.2-0.3c1.2,0,2.4,0,3.5,0.1c-1-1.5-2-3.5-1-5.1c1-1.2,2.6-1.6,4-0.9c1.3,0.7,2.5,1.7,3.3,2.9l2.5,3
				C141.6,104.1,135.6,103.9,134.7,107.3z"/>
			<path id="Path_8743" class="st16" d="M129,40.7c0.2,1.3,0.1,2.6-0.3,3.9c-0.2,1.4-0.8,2.6-1.7,3.6c-1.5,1.3-3.7,1-5.5,0.6
				l-2.7-0.5c-1.1-0.1-2.1-0.5-3-1c-1.8-1.3-2.1-3.9-2.1-6.2c-0.1-1.1,0.1-2.2,0.5-3.3C117.5,30.6,127.3,34.4,129,40.7z"/>
			<path id="Path_8744" class="st16" d="M83.7,28.8c1.8,3.7,1.7,8.1-0.5,11.7c-0.7,1.2-1.7,2.2-3,2.8c-1.6,0.6-3.4,0.6-5.1,0.2
				c-3.4-0.7-6.8-1.9-9.1-4.5s-3.1-6.7-1.1-9.5c0.7-0.9,1.5-1.7,2.4-2.4c2.9-2.4,4.9-5.3,8.8-4.4C79.5,23.5,82.2,25.8,83.7,28.8z"/>
			<path id="Path_8745" class="st17" d="M74.7,27.2c-0.3,1.5-1.8,2.5-3.3,2.2c-0.2,0-0.4-0.1-0.6-0.2c-1.7-0.9-1.4-3.1-0.1-4.3
				C72.5,23.3,75,24.7,74.7,27.2z"/>
			<path id="Path_8746" class="st17" d="M120.3,36.4c-0.2,1.2-1.4,2-2.6,1.8c-0.2,0-0.3-0.1-0.5-0.2c-1.4-0.8-1.1-2.5-0.1-3.4
				c0.7-0.7,1.9-0.8,2.7,0C120.3,35,120.5,35.7,120.3,36.4z"/>
			<g id="Group_2232" transform="translate(57.011 48.487)">
				<g id="Group_2160">
					<path id="Path_8694" class="st18" d="M7.8,3.9l2.7,0.5c9.8,1.9,19.2-4.5,21.1-14.3l0,0L33.7-21c0.3-1.4-0.6-2.7-1.9-3.1
						l-34-9.9c-0.5-0.1-1,0.1-1.1,0.6v0.1l-3.2,16.1C-8.4-7.4-2,2,7.8,3.9L7.8,3.9z"/>
					<path id="Path_8695" class="st18" d="M64.4,14.8l2.7,0.5c9.8,1.9,19.2-4.5,21.1-14.3l3.1-16.1c0.1-0.5-0.2-1-0.7-1.1h-0.1
						l-35.3-3.4c-1.4-0.1-2.6,0.8-2.9,2.2L50.2-6.3C48.2,3.5,54.6,12.9,64.4,14.8z"/>
				</g>
				<line id="Line_136" class="st18" x1="51.1" y1="-11.2" x2="32.6" y2="-14.7"/>
			</g>
			<g id="Group_2233" transform="translate(77.014 98.132)">
				<path id="Path_8568" class="st17" d="M29.1-26.6c-0.5,0.7-1.1,1.3-1.8,1.8c-4.1,3.2-9.5,4.4-14.4,5.5c-3.3,0.9-6.7,1.1-10,0.7
					c-3.5-0.4-7.7-2-9.1-5.4c-0.7-2-0.9-4.2-0.4-6.3L29.1-26.6z"/>
				<path id="Path_8569" class="st16" d="M-5.8-34c3.2,0.2,36.7,1.5,36.6,3.2c-0.1,1.5-0.7,3-1.8,4.2l-35.5-3.7
					C-6.3-31.6-6-32.8-5.8-34z"/>
			</g>
		</g>
	</g>
	<g id="Group_2244" transform="translate(641.592 346.332)">
		<g id="Group_2241" transform="translate(264.206 302.058)">
			<rect id="Rectangle_2499" x="-6.8" y="-34" class="st19" width="5" height="158.6"/>
		</g>
	</g>
	<g id="Group_2123" transform="translate(783.201 379.707)">
		<g>
			<circle id="Ellipse_227_1_" class="st16" cx="118.3" cy="91.1" r="125.1"/>
			<path class="st20" d="M118.3-54C38.3-54-26.8,11.1-26.8,91.1s65.1,145.1,145.1,145.1s145.1-65.1,145.1-145.1S198.3-54,118.3-54z
				 M118.3-14c20.1,0,38.9,5.7,54.9,15.5L28.7,146c-9.8-16-15.5-34.8-15.5-54.9C13.2,33.1,60.3-14,118.3-14z M118.3,196.2
				c-20.1,0-38.9-5.7-54.9-15.5L207.9,36.2c9.8,16,15.5,34.8,15.5,54.9C223.4,149,176.2,196.2,118.3,196.2z"/>
		</g>
	</g>
</g>
</svg>
