<?xml version="1.0" encoding="utf-8"?>
<!-- Generator: Adobe Illustrator 25.1.0, SVG Export Plug-In . SVG Version: 6.00 Build 0)  -->
<svg version="1.1" id="Layer_1" xmlns="http://www.w3.org/2000/svg" xmlns:xlink="http://www.w3.org/1999/xlink" x="0px" y="0px"
	 viewBox="0 0 725.3 2000" style="enable-background:new 0 0 725.3 2000;" xml:space="preserve">
<style type="text/css">
	.st0{fill:#FFFFFF;}
	.st1{fill:#14356B;}
	.st2{fill:#162B60;}
	.st3{fill:#23529B;}
	.st4{fill:#1C387C;}
	.st5{fill:#141E41;}
	.st6{fill:#0F1222;}
	.st7{fill:#264593;}
	.st8{opacity:0.36;fill:#CCECF8;enable-background:new    ;}
	.st9{fill:none;stroke:#FAA83B;stroke-width:4;stroke-miterlimit:10;}
	.st10{fill:#F8A63B;}
	.st11{fill:none;stroke:#FCB83D;stroke-width:4;stroke-miterlimit:10;}
	.st12{clip-path:url(#SVGID_2_);}
	.st13{fill:#FCB83D;}
	.st14{fill:#513114;}
	.st15{fill:#F16E24;}
	.st16{fill:#3F5765;}
	.st17{fill:#2B3A42;}
	.st18{fill:none;stroke:#2B3A42;stroke-width:3;stroke-miterlimit:10;}
	.st19{fill:#FCB73D;}
	.st20{fill:#F9A83B;}
	.st21{clip-path:url(#SVGID_4_);}
	.st22{fill:#EE5225;}
</style>
<g id="Image" transform="translate(-27 -180.503)">
	<circle id="Ellipse_227" class="st0" cx="448.7" cy="575.2" r="234.7"/>
	<g id="Group_2169" transform="translate(27 180.503)">
		<g id="Group_2140" transform="translate(0)">
			<g id="Group_2124">
				<path id="Path_8706" class="st1" d="M314.4,301.6H173.5c-24.4,0-44.2-19.8-44.2-44.2V44.2c0-18.1-14.7-32.8-32.8-32.8l0,0H5.7
					C2.5,11.3,0,8.8,0,5.7l0,0l0,0C0,2.5,2.5,0,5.7,0h90.9c24.4,0,44.2,19.8,44.2,44.2l0,0v213.2c0,18.1,14.7,32.8,32.8,32.8l0,0
					h140.9v11.4H314.4z"/>
			</g>
			<g id="Group_2139" transform="translate(251.634 252.106)">
				<g id="Group_2125" transform="translate(0 25.373)">
					<path id="Path_8707" class="st2" d="M32.3,36.8H9.8C4.4,36.8,0,32.4,0,27l0,0V9.8c0-2.9,1.3-5.6,3.4-7.4l0,0
						C5.2,0.8,7.4,0,9.8,0h22.6L32.3,36.8z"/>
				</g>
				<g id="Group_2131" transform="translate(27.254 0)">
					<g id="Group_2128">
						<g id="Group_2126" transform="translate(0 6.139)">
							<path id="Path_8708" class="st3" d="M57.7,75.3H12.6C5.6,75.3,0,69.6,0,62.7V12.6C0,5.6,5.6,0,12.6,0h45.1
								C57.7,0,57.7,75.3,57.7,75.3z"/>
						</g>
						<g id="Group_2127" transform="translate(57.699)">
							<path id="Rectangle_2470" class="st4" d="M0,82.8v-78C0,2.1,2.1,0,4.8,0h0.4C7.8,0,10,2.1,10,4.8v78c0,2.6-2.1,4.8-4.8,4.8
								H4.8C2.1,87.6,0,85.4,0,82.8z"/>
						</g>
					</g>
					<g id="Group_2129" transform="translate(67.627 19.652)">
						<path id="Path_8709" class="st5" d="M0,12.8V0h30.7c3.5,0,6.4,2.9,6.4,6.4l0,0l0,0c0,3.5-2.9,6.4-6.4,6.4l0,0H0z"/>
					</g>
					<g id="Group_2130" transform="translate(67.627 55.08)">
						<path id="Rectangle_2471" class="st5" d="M37.1,6.4L37.1,6.4c0,3.5-2.9,6.4-6.4,6.4l0,0H0l0,0V0l0,0h30.7
							C34.2,0,37.1,2.9,37.1,6.4L37.1,6.4z"/>
					</g>
				</g>
				<g id="Group_2132" transform="translate(27.254 6.139)">
					<path id="Path_8710" class="st4" d="M57.7,75.3H12.6C5.6,75.3,0,69.6,0,62.7V12.6C0,5.6,5.6,0,12.6,0c3.8,54.1,45.1,59,45.1,59
						S57.7,75.3,57.7,75.3z"/>
				</g>
				<g id="Group_2133" transform="translate(81.317 6.139)">
					<rect id="Rectangle_2472" x="0" y="0" class="st2" width="3.6" height="75.3"/>
				</g>
				<g id="Group_2134" transform="translate(27.254 33.667)">
					<path id="Path_8711" class="st2" d="M38.6,47.8h-26C5.6,47.8,0,42.1,0,35.1V0C0,35.5,38.6,47.8,38.6,47.8z"/>
				</g>
				<g id="Group_2135" transform="translate(24.897 25.373)">
					<rect id="Rectangle_2473" x="0" y="0" class="st5" width="2.4" height="36.8"/>
				</g>
				<g id="Group_2136" transform="translate(94.88 19.652)">
					<rect id="Rectangle_2474" x="0" y="0" class="st6" width="4.5" height="12.8"/>
				</g>
				<g id="Group_2137" transform="translate(94.88 55.08)">
					<rect id="Rectangle_2475" x="0" y="0" class="st6" width="4.5" height="12.8"/>
				</g>
				<g id="Group_2138" transform="translate(0 27.704)">
					<path id="Path_8712" class="st5" d="M27.3,34.5H9.8c-5.4,0-9.8-4.4-9.8-9.8l0,0V7.4C0,4.6,1.3,1.8,3.4,0l0,0
						C0.1,27,27.3,31.1,27.3,31.1V34.5z"/>
				</g>
			</g>
		</g>
		<g id="Group_2153" transform="translate(482.523 252.106)">
			<g id="Group_2141" transform="translate(49.801 38.118)">
				<path id="Path_8713" class="st1" d="M187.4,1728.8L187.4,1728.8c-3.1,0-5.7-2.5-5.7-5.7l0,0V44.2c0-18.1-14.7-32.8-32.8-32.8H0
					V0h148.9C173.2,0,193,19.8,193,44.2l0,0v1678.9C193,1726.2,190.5,1728.8,187.4,1728.8L187.4,1728.8z"/>
			</g>
			<g id="Group_2152" transform="translate(0 0)">
				<g id="Group_2142" transform="translate(62.548 25.373)">
					<path id="Path_8714" class="st2" d="M0,36.8h22.6c5.4,0,9.8-4.4,9.8-9.8l0,0V9.8c0-2.9-1.3-5.6-3.4-7.4l0,0
						c-1.8-1.5-4-2.3-6.3-2.3H0V36.8z"/>
				</g>
				<g id="Group_2146">
					<g id="Group_2145">
						<g id="Group_2143" transform="translate(9.927 6.139)">
							<path id="Path_8715" class="st3" d="M0,75.3h45.1c7,0,12.6-5.6,12.6-12.6V12.6c0-7-5.6-12.6-12.6-12.6H0V75.3z"/>
						</g>
						<g id="Group_2144">
							<path id="Rectangle_2476" class="st4" d="M0,82.8v-78C0,2.1,2.1,0,4.8,0h0.4C7.8,0,10,2.1,10,4.8v78c0,2.6-2.1,4.8-4.8,4.8
								H4.8C2.1,87.6,0,85.4,0,82.8z"/>
						</g>
					</g>
				</g>
				<g id="Group_2147" transform="translate(9.927 6.139)">
					<path id="Path_8716" class="st4" d="M0,75.3h45.1c7,0,12.6-5.6,12.6-12.6V12.6c0-7-5.6-12.6-12.6-12.6C41.3,54.1,0,59,0,59
						V75.3z"/>
				</g>
				<g id="Group_2148" transform="translate(9.928 6.139)">
					<rect id="Rectangle_2477" x="0" y="0" class="st2" width="3.6" height="75.3"/>
				</g>
				<g id="Group_2149" transform="translate(28.986 33.667)">
					<path id="Path_8717" class="st2" d="M0,47.8h26c7,0,12.6-5.6,12.6-12.6V0C38.6,35.5,0,47.8,0,47.8z"/>
				</g>
				<g id="Group_2150" transform="translate(67.627 25.373)">
					<rect id="Rectangle_2478" x="0" y="0" class="st5" width="2.4" height="36.8"/>
				</g>
				<g id="Group_2151" transform="translate(67.627 27.704)">
					<path id="Path_8718" class="st5" d="M0,34.5h17.5c5.4,0,9.8-4.4,9.8-9.8V7.4c0-2.9-1.2-5.6-3.4-7.4l0,0C27.1,27,0,31.1,0,31.1
						V34.5z"/>
				</g>
			</g>
		</g>
		<g id="Group_2168" transform="translate(311.635 170.615)">
			<g id="Group_2160" transform="translate(131.515)">
				<g id="Group_2155">
					<g id="Group_2154">
						<path id="Path_8719" class="st7" d="M0,26.5V3.2C0,1.4,1.4,0,3.2,0s3.2,1.4,3.2,3.2v23.3c0,1.8-1.4,3.2-3.2,3.2S0,28.3,0,26.5
							L0,26.5z"/>
					</g>
				</g>
				<g id="Group_2157" transform="translate(29.588 52.9)">
					<g id="Group_2156">
						<path id="Path_8720" class="st7" d="M0,3.2C0,1.4,1.4,0,3.2,0h23.3c1.8,0,3.2,1.4,3.2,3.2s-1.4,3.2-3.2,3.2l0,0H3.2
							C1.4,6.4,0,5,0,3.2z"/>
					</g>
				</g>
				<g id="Group_2159" transform="translate(21.392 15.494)">
					<g id="Group_2158">
						<path id="Path_8721" class="st7" d="M0,19.2c0-0.9,0.3-1.7,0.9-2.3l16-16c1.3-1.2,3.3-1.2,4.5,0s1.2,3.2,0,4.5l-16,16
							c-1.3,1.3-3.3,1.3-4.5,0C0.3,20.9,0,20.1,0,19.2L0,19.2z"/>
					</g>
				</g>
			</g>
			<g id="Group_2167" transform="translate(0 191.228)">
				<g id="Group_2162" transform="translate(52.9 29.588)">
					<g id="Group_2161">
						<path id="Path_8722" class="st7" d="M6.4,3.2v23.3c0,1.8-1.4,3.2-3.2,3.2S0,28.3,0,26.5V3.2C0,1.4,1.4,0,3.2,0
							S6.4,1.4,6.4,3.2L6.4,3.2z"/>
					</g>
				</g>
				<g id="Group_2164">
					<g id="Group_2163">
						<path id="Path_8723" class="st7" d="M29.7,3.2c0,1.8-1.4,3.2-3.2,3.2H3.2C1.4,6.4,0,5,0,3.2S1.4,0,3.2,0l0,0h23.3
							C28.3,0,29.7,1.4,29.7,3.2z"/>
					</g>
				</g>
				<g id="Group_2166" transform="translate(15.494 21.392)">
					<g id="Group_2165">
						<path id="Path_8724" class="st7" d="M22.4,3.2c0,0.9-0.3,1.7-0.9,2.3l-16,16c-1.3,1.2-3.3,1.2-4.5,0s-1.2-3.2,0-4.5L17,1
							c1.3-1.3,3.3-1.3,4.5,0C22.1,1.5,22.4,2.4,22.4,3.2L22.4,3.2z"/>
					</g>
				</g>
			</g>
		</g>
	</g>
	<g id="Louie" transform="translate(381.705 612.652)">
		<path id="Path_8678" class="st8" d="M64.1,195.8c6,1.7,12.3,1.9,18.5,0.7c8.6-1.5,17.3-6.6,26.1-5.4c10.9,1.4,21.6,4.5,32.6,4.5
			c1.1,0.1,2.2-0.1,3.2-0.4c2.1-0.8,3.5-2.7,3.7-4.9s-0.9-4.4-2.9-5.5c-1.1-0.5-2.2-0.7-3.4-0.7c-10.4-0.7-21.4,1.4-31.9,1.9
			c-5.1,0.2-10.2,1.2-15-1.2c-4.1-2-8.7-2.9-13.3-2.9c-6.1,0.1-12.2,0.4-18.3,1.1c-1.8,0.2-3.5,0.6-5.2,1.4c-2.2,1-2.8,0.9-5.4,1.1
			c-14.2,1.1-29.3-0.7-43.4-2.7c-1.9-0.3-4-0.6-5.8,0.2c-2.2,1.1-3.6,3.4-3.5,5.9c0.2,2.5,1.8,4.6,4.2,5.3c1.6,0.3,3.2,0.2,4.8-0.2
			c7.4-1.3,15-2.1,22.5-2.3c6.5-0.2,13.1-2,19.6-0.9c3.9,0.7,7.4,3,11.1,4.4C63,195.4,63.5,195.6,64.1,195.8z"/>
		<line id="Line_134" class="st9" x1="81.8" y1="149.1" x2="81.8" y2="185"/>
		<line id="Line_135" class="st9" x1="66.8" y1="149.1" x2="66.8" y2="185"/>
		<g id="Group_2151-2" transform="translate(56.314 182.992)">
			<g id="Group_2150-2">
				<g id="Group_2149-2">
					<g id="Group_2148-2">
						<g id="Group_2147-2">
							<path id="Path_8679" class="st10" d="M1.1,4c1.6-1.1,3.6-1.5,5.5-1.2C7.4,3,8.3,2.6,8.5,1.7c0-0.1,0.1-0.3,0.1-0.4L12.4,0
								c0.3,1,1.8,1.9,2.2,2.9c0.7,1.6-1.1,2.5-2.4,3c-0.5,0.2-0.9,0.3-1.4,0.3s-1-0.1-1.5-0.3c-0.7-0.1-1.3-0.1-2,0
								C5,6.3,2.7,7.4,0.6,6.1C0.3,6,0.1,5.8,0,5.5C0,5.3,0,5,0.2,4.8C0.4,4.5,0.7,4.2,1.1,4z"/>
						</g>
					</g>
				</g>
			</g>
		</g>
		<g id="Group_2156-2" transform="translate(77.594 182.982)">
			<g id="Group_2155-2">
				<g id="Group_2154-2">
					<g id="Group_2153-2">
						<g id="Group_2152-2">
							<path id="Path_8680" class="st10" d="M13.6,4C11.9,3,10,2.6,8.1,2.8C7.1,3,6.2,2.3,6,1.4L2.3,0C2,1.4,0.6,1.9,0.1,2.9
								c-0.7,1.6,1.1,2.5,2.4,3C3,6.1,3.5,6.2,4,6.2s1-0.1,1.5-0.3c0.7-0.1,1.3-0.1,2,0C9.7,6.3,12,7.3,14.2,6
								c0.2-0.1,0.4-0.3,0.5-0.6c0.1-0.3,0-0.5-0.1-0.8C14.3,4.5,14,4.2,13.6,4z"/>
						</g>
					</g>
				</g>
			</g>
		</g>
		<path id="Path_8681" class="st11" d="M16.3,120.6c0,0-10.8,15.1-6.2,30.5c0,0,13.7,3.4,33.3-2"/>
		<g id="Group_2158-2" transform="translate(9.793 36.138)">
			<path id="Path_8682" class="st10" d="M132.8,44.6c0.4,3,0.5,6.1,0.3,9.2c0,4.7,1.2,8.9,0.1,13.7c-2,9.4-8.6,16.8-14.6,24.1
				c-2,2.6-4.2,5.1-6.6,7.4c-8.6,7.9-22.2,11.6-33.4,13.8c-3.2,0.6-6.5,0.6-9.8,0.1c-4-0.4-8.2,1.5-12.1,2c-8.4,1-16.7-2.5-24.2-6.5
				c-8-4.3-15.7-9.3-22.2-15.8c-4.2-4.2-8-9.3-9.5-15.1c-0.6-2.6-1-5.3-1-8c0.1-6.6,0.9-13.2,2.4-19.6c0.8-4.5,2.2-8.9,4-13.1
				c2.3-4.8,6.1-7.6,9.3-11.5c3.4-4,7.2-7.6,11.4-10.7C45.3,1.3,68.4-3.2,90.1,2.3c13.2,3.5,25.8,11,34.1,22.4
				c4,5.5,6.8,11.7,8.3,18.3C132.7,43.5,132.8,44,132.8,44.6z"/>
			<g>
				<g>
					<defs>
						<path id="SVGID_1_" d="M132.8,44.6c0.4,3,0.5,6.1,0.3,9.2c0,4.7,1.2,8.9,0.1,13.7c-2,9.4-8.6,16.8-14.6,24.1
							c-2,2.6-4.2,5.1-6.6,7.4c-8.6,7.9-22.2,11.6-33.4,13.8c-3.2,0.6-6.5,0.6-9.8,0.1c-4-0.4-8.2,1.5-12.1,2
							c-8.4,1-16.7-2.5-24.2-6.5c-8-4.3-15.7-9.3-22.2-15.8c-4.2-4.2-8-9.3-9.5-15.1c-0.6-2.6-1-5.3-1-8c0.1-6.6,0.9-13.2,2.4-19.6
							c0.8-4.5,2.2-8.9,4-13.1c2.3-4.8,6.1-7.6,9.3-11.5c3.4-4,7.2-7.6,11.4-10.7C45.3,1.3,68.4-3.2,90.1,2.3
							c13.2,3.5,25.8,11,34.1,22.4c4,5.5,6.8,11.7,8.3,18.3C132.7,43.5,132.8,44,132.8,44.6z"/>
					</defs>
					<clipPath id="SVGID_2_">
						<use xlink:href="#SVGID_1_"  style="overflow:visible;"/>
					</clipPath>
					<g id="Group_2157-2" class="st12">
						<path id="Path_8683" class="st13" d="M116.4,37.1c1.3,5.6,1.5,11.4,0.6,17.1c-0.9,5.1-2.9,9.9-4.9,14.7c-2,4.8-4,9.6-7.1,13.8
							c-5,6.7-12.4,11.1-20.2,13.8s-16,3.6-24.2,4.6c-8.4,1-17.4,3.2-25.8,3.1c-6,0-14.1-3.4-19.4-6.3c-3.7-2-7.5-5.8-10.6-8.8
							c-7.7-7.3-13-16.8-15-27.2c-6-30.7,18.2-61.2,54-68c13.6-2.7,27.8-1.5,40.7,3.5c9.2,3.7,17.1,11.1,23.1,19.2
							c3.2,4.4,5.6,9.3,7.2,14.5C115.4,33,116,35.1,116.4,37.1z"/>
					</g>
				</g>
			</g>
		</g>
		<path id="Path_8685" class="st0" d="M43.5,81.7c-0.2,1.3-0.1,2.6,0.3,3.9c0.2,1.4,0.8,2.6,1.7,3.6c1.5,1.3,3.7,1,5.5,0.6l2.7-0.5
			c1.1-0.1,2.1-0.5,3-1c1.8-1.3,2.1-3.9,2.1-6.2c0.1-1.1-0.1-2.2-0.5-3.3C55,71.6,45.3,75.4,43.5,81.7z"/>
		<path id="Path_8686" class="st0" d="M88.8,69.8c-1.8,3.7-1.7,8.1,0.5,11.7c0.7,1.2,1.7,2.2,3,2.8c1.6,0.6,3.4,0.6,5.1,0.2
			c3.4-0.7,6.8-1.9,9.1-4.5s3.1-6.7,1.1-9.5c-0.7-0.9-1.5-1.7-2.4-2.4c-2.9-2.4-4.9-5.3-8.8-4.4C93.1,64.6,90.3,66.8,88.8,69.8z"/>
		<path id="Path_8687" class="st14" d="M97.9,68.2c0.3,1.5,1.8,2.5,3.3,2.2c0.2,0,0.4-0.1,0.6-0.2c1.7-0.9,1.4-3.1,0.1-4.3
			C100,64.3,97.5,65.7,97.9,68.2z"/>
		<path id="Path_8688" class="st14" d="M52.2,77.4c0.2,1.2,1.4,2,2.6,1.8c0.2,0,0.3-0.1,0.5-0.2c1.4-0.8,1.1-2.5,0.1-3.4
			c-0.7-0.7-1.9-0.8-2.7,0C52.3,76,52.1,76.7,52.2,77.4z"/>
		<path id="Path_8689" class="st15" d="M6.4,49.6C12.5,34.4,27,23.9,42.5,18.5s32-6.4,48.3-7.8s33-3.5,47.7-10.7
			c-1.8,21.1,0.7,46-0.5,67.2c-7.3-8.4-15.1-17.7-23.2-17.1c-26.2,1.9-47.5-0.4-72.7,7c-8.1,2.4-19.5,4.3-22,12.4
			c-1.4,4.4-3.4,10.3-3.9,14.9C14,103.8,5.7,86.8,4.4,78.8C2.6,69,2.7,58.9,6.4,49.6z"/>
		<g id="Group_2159-2" transform="translate(62.875 131.254)">
			<path id="Path_8690" class="st16" d="M25.4,11.9c3.9-3.2,8.9-7.6,12.8-10.7c0.9-0.8,2.6-1.9,3.7-0.7c0.4,0.5,0.7,1.2,0.8,1.8
				c0.8,3,1.3,6,1.6,9c0.2,2.4,1.4,4.9,0.8,7.4c-0.1,0.3-0.2,0.6-0.4,0.9C44.4,19.8,44,20,43.5,20c-4.1,0.6-8.2,0.7-12.3,0.3
				c-1.7-0.2-4.2-0.3-4.9-2c-0.4-1-0.7-2.1-0.8-3.2C25.4,14.6,25,12.3,25.4,11.9z"/>
			<path id="Path_8691" class="st16" d="M4.7,9.1c-1.5-0.4-3.5-0.7-4.3,1c-1.2,2.5,0.7,6.2,1.4,8.6c0.8,3,2.1,9.7,6.5,9.2
				c1.9-0.2,3.5-1.7,5.1-2.6l6-3.4c0.5-0.3,1-0.6,1.4-1c1-1.3,0.1-4.4-0.7-5.7c-0.9-1.6-2.7-2.3-4.3-3.1C12.5,10.5,8.1,9.9,4.7,9.1z
				"/>
			<path id="Path_8692" class="st17" d="M32.8,3.3c1.6-1.5,3.6-3,5.9-3c0.3,0,0.6,0,0.9,0.2C40,0.8,40.2,1.4,40,2
				c-0.2,0.5-0.5,1-0.9,1.3c-2,1.8-4.1,3.5-6.3,4.9c-2,1.5-4.2,2.8-6.4,3.8c-0.5,0.2-1.4,0.5-1.5-0.3c-0.1-0.7,0.9-1.3,1.3-1.7
				c0.8-0.8,1.7-1.6,2.5-2.5C30.1,6.3,31.4,4.7,32.8,3.3z"/>
			<path id="Path_8693" class="st17" d="M14,12.9c0.8,0.1,1.6,0.2,2.3,0.4c0.7,0.1,2.3,0.7,3,0.3c1.3-0.7-2-2.8-2.4-3
				c-1.6-0.8-3.3-1.4-5-1.6c-1.4-0.2-9.5-1.2-9.4,1.1c0,0.5,0.3,0.9,0.8,1.1c0.4,0.2,0.9,0.3,1.4,0.4c2.6,0.4,5.2,0.7,7.8,1.1
				L14,12.9z"/>
			<path id="Rectangle_2431" class="st17" d="M22.7,11.9L22.7,11.9c2.4-0.5,4.7,1.1,5.2,3.5l0,0c0.5,2.4-1.1,4.7-3.5,5.2l0,0
				c-2.4,0.5-4.7-1.1-5.2-3.5l0,0C18.7,14.6,20.2,12.3,22.7,11.9z"/>
		</g>
		<g id="Group_2161-2" transform="translate(24.224 55.519)">
			<g id="Group_2160-2">
				<path id="Path_8694" class="st18" d="M83.5,37.9l-2.7,0.5c-9.8,1.9-19.2-4.5-21.1-14.3l0,0L57.6,13c-0.3-1.4,0.6-2.7,1.9-3.1
					l34-9.9c0.5-0.1,1,0.1,1.1,0.6v0.1l3.1,16.1C99.7,26.6,93.3,36,83.5,37.9L83.5,37.9z"/>
				<path id="Path_8695" class="st18" d="M26.9,48.8l-2.7,0.5C14.4,51.2,5,44.8,3.1,35L0,18.9c-0.1-0.5,0.2-1,0.7-1.1h0.1l35.3-3.4
					c1.4-0.1,2.6,0.8,2.9,2.2l2.1,11.1C43.1,37.5,36.7,46.9,26.9,48.8z"/>
			</g>
			<line id="Line_136" class="st18" x1="40.2" y1="22.8" x2="58.7" y2="19.3"/>
		</g>
		<g id="Group_2162-2" transform="translate(0 64.147)">
			<path id="Path_8696" class="st19" d="M2.6,27.3c-3,2.9-3.1,8.6-1.7,13.1c0.9,3,2.9,6.2,5.5,6.1c1.4,0,2.5-1,3.7-1.7
				s2.7-1.1,3.9-0.1l0.4,0.7c-0.6-1.1-0.8-5.8-1.3-7.5c-0.5-2-0.4-6.5-1.2-8C10.4,27.1,4.9,25,2.6,27.3z"/>
			<path id="Path_8697" class="st20" d="M143.4,0.2c3.9,1.6,6.1,6.8,6.5,11.6c0.3,3.1-0.4,6.8-2.9,7.7c-1.3,0.5-2.7,0-4.1-0.2
				s-2.9,0-3.7,1.3l-0.1,0.8c0.1-1.3-1.4-5.7-1.6-7.4c-0.2-2.1-2-6.2-1.8-7.9C136,2.9,140.4-1,143.4,0.2z"/>
		</g>
		<g id="Group_2164-2" transform="translate(3.237)">
			<g>
				<g>
					<defs>
						<path id="SVGID_3_" d="M3.2,49.6c6.1-15.2,20.6-25.7,36.1-31.1s32-6.4,48.3-7.8S120.5,7.2,135.2,0c-1.8,21.1,0.7,46-0.5,67.2
							c-7.3-8.4-15.1-17.7-23.2-17.1c-26.2,1.9-47.5-0.4-72.7,7c-8.1,2.4-19.5,4.3-22,12.4c-1.4,4.4-3.4,10.3-3.9,14.9
							C10.7,103.7,2.4,86.8,1,78.7C-0.6,69-0.5,58.9,3.2,49.6z"/>
					</defs>
					<clipPath id="SVGID_4_">
						<use xlink:href="#SVGID_3_"  style="overflow:visible;"/>
					</clipPath>
					<g id="Group_2163-2" class="st21">
						<path id="Path_8698" class="st22" d="M107.3,34.8c0.3-5.3,2-10.5,4.1-15.4c2.7-6.6,6.2-13.7,4.3-20.6
							C128.9-2.7,142-4.9,155-7.8c-4.4,17.4-7.5,35.1-9.4,52.9c-0.8,7.3-1.4,14.7-3.6,21.7c-0.8,2.6-2.5,5.5-5.2,5.3
							c-1.2-0.2-2.3-0.7-3.2-1.5c-4.2-3.4-8.2-7.2-11.9-11.2c-1.6-1.8-3.5-3.4-5.5-4.8c-1.1-0.5-2.1-1.2-3.1-1.9
							c-1.1-1-1.1-2.2-1.6-3.4c-0.7-1.5-1.9-2.8-2.6-4.4C107.6,41.7,107.1,38.2,107.3,34.8z"/>
					</g>
				</g>
			</g>
		</g>
		<g id="Group_2166-2" transform="translate(73.106 98.907)">
			<g id="Group_2165-2" transform="translate(9.843 13.423)">
				<path id="Path_8700" class="st9" d="M51.9,5.3C52.3,10.5,2.4,5.2,0,0"/>
			</g>
			<path id="Path_8701" class="st10" d="M13.2,9.1C14,8,14.7,6.8,15.3,5.5C15.7,4.7,16,3.7,16,2.8c0-1-0.4-1.9-1.2-2.4
				c-1.1-0.6-2.5-0.4-3.5,0.5C10.4,1.8,9.7,2.8,9.2,4C8.7,2.6,7.3,1.8,5.8,2C4.4,2.2,3.2,3.1,2.5,4.3C2.2,4.6,2.1,5,2.1,5.4
				c0.1,0.4,0.2,0.8,0.5,1.1c0.7,1,1.4,1.9,2.2,2.8c-1.8,0.1-4,0.5-4.6,2.3c-0.4,1.5,0.4,3.1,1.7,3.7c1.4,0.6,2.9,0.9,4.4,0.9
				l3.8,0.2C14.9,16.5,11.1,11.9,13.2,9.1z"/>
		</g>
		<path id="Path_8702" class="st13" d="M46.6,153.2c0.7,1.2,1.4,2.4,2.3,3.4c0.6,0.7,1.3,1.4,2.2,1.8c0.9,0.4,1.9,0.4,2.7-0.1
			c1-0.8,1.4-2.1,1-3.3s-1.1-2.3-1.9-3.2c1.4,0.1,2.7-0.8,3.2-2.2c0.4-1.4,0.2-2.8-0.6-4c-0.2-0.4-0.5-0.7-0.8-0.8
			c-0.4-0.1-0.8-0.1-1.2,0c-1.2,0.2-2.3,0.5-3.4,0.8c0.7-1.7,1.2-3.9-0.1-5.2c-1.2-1-2.9-1-4.1,0c-1.2,1-2.1,2.2-2.7,3.6l-1.8,3.4
			C39.2,151.6,45,150.2,46.6,153.2z"/>
	</g>
</g>
</svg>
